<svg width="105" height="42" viewBox="0 0 105 42" fill="none" xmlns="http://www.w3.org/2000/svg">
    <path fill-rule="evenodd" clip-rule="evenodd" d="M13.0567 31.4874L13.0437 31.5004L13.0311 31.5137C12.7569 31.8041 12.2979 32.0368 11.445 32.0368C10.6078 32.0368 10.1136 31.8116 9.79524 31.5005C9.51595 31.1969 9.28398 30.6696 9.28398 29.7214V27.3031C9.28398 26.9336 8.98451 26.6342 8.61509 26.6342H0.691234C0.321813 26.6342 0.0223389 26.9336 0.0223389 27.3031V29.7728C0.0223389 33.1093 0.975258 35.8672 3.0416 37.8525L3.05087 37.8614L3.06031 37.8701C5.15323 39.802 8.02715 40.681 11.4965 40.681C14.9341 40.681 17.7788 39.8005 19.8389 37.8616L19.8437 37.8571L19.8485 37.8525C21.9148 35.8672 22.8677 33.1093 22.8677 29.7728V1.98791C22.8677 1.61848 22.5682 1.31901 22.1988 1.31901H14.275C13.9056 1.31901 13.6061 1.61848 13.6061 1.9879V29.7214C13.6061 30.6647 13.3605 31.1836 13.0567 31.4874ZM34.5215 39.5333L34.5299 39.5376L34.5384 39.5418C36.5982 40.5717 38.9452 41.0669 41.5454 41.0669C44.1455 41.0669 46.4925 40.5717 48.5523 39.5418L48.5608 39.5376L48.5692 39.5333C50.6239 38.4679 52.2317 36.9657 53.3556 35.0316C54.5129 33.0993 55.0777 30.9139 55.0777 28.5122V13.4878C55.0777 11.0861 54.5129 8.90066 53.3556 6.96843C52.2308 5.03277 50.6202 3.54542 48.5608 2.51384C46.4992 1.44676 44.1489 0.933105 41.5454 0.933105C38.9418 0.933105 36.5916 1.44676 34.53 2.51383C32.4778 3.54171 30.8542 5.00476 29.6945 6.89895L29.6895 6.90717L29.6846 6.91546C28.5584 8.81839 28.0131 10.9883 28.0131 13.3849V28.6151C28.0131 31.0117 28.5584 33.1816 29.6846 35.0845L29.6895 35.0928L29.6945 35.101C30.8532 36.9936 32.4739 38.4715 34.5215 39.5333ZM68.8158 40.2951C69.1852 40.2951 69.4847 39.9956 69.4847 39.6262V2.37381C69.4847 2.00439 69.1852 1.70491 68.8158 1.70491H60.8919C60.5225 1.70491 60.223 2.00438 60.223 2.3738V39.6262C60.223 39.9956 60.5225 40.2951 60.8919 40.2951H68.8158ZM103.341 40.3208C103.711 40.3208 104.01 40.0213 104.01 39.6519V2.34808C104.01 1.97866 103.711 1.67918 103.341 1.67918H95.4173C95.0478 1.67918 94.7484 1.97866 94.7484 2.34808V19.8823C94.7484 20.6032 93.7649 20.814 93.4694 20.1565L85.3643 2.12529C85.2563 1.88512 85.0175 1.73063 84.7542 1.73063H75.2989C74.9295 1.73063 74.63 2.03011 74.63 2.39953V39.6519C74.63 40.0213 74.9295 40.3208 75.2989 40.3208H83.2228C83.5922 40.3208 83.8917 40.0213 83.8917 39.6519V22.7643C83.8917 22.0481 84.865 21.8328 85.167 22.4822L93.285 39.934C93.3948 40.1699 93.6313 40.3208 93.8915 40.3208H103.341ZM41.5454 32.4227C42.999 32.4227 43.9981 32.0098 44.7006 31.3073C45.3893 30.6186 45.816 29.5787 45.816 27.9977V14.0023C45.816 12.4213 45.3893 11.3814 44.7006 10.6927C43.9981 9.99017 42.999 9.5773 41.5454 9.5773C40.0918 9.5773 39.0926 9.99017 38.3901 10.6927C37.7014 11.3814 37.2747 12.4213 37.2747 14.0023V27.9977C37.2747 29.5787 37.7014 30.6186 38.3901 31.3073C39.0926 32.0098 40.0918 32.4227 41.5454 32.4227Z" fill="white"/>
</svg>
