<svg width="24" height="24" viewBox="0 0 24 24" xmlns="http://www.w3.org/2000/svg">
<path d="M21.0015 19.749H3.00146C2.80255 19.749 2.61179 19.67 2.47113 19.5294C2.33048 19.3887 2.25146 19.1979 2.25146 18.999C2.25146 18.8001 2.33048 18.6093 2.47113 18.4687C2.61179 18.328 2.80255 18.249 3.00146 18.249H21.0015C21.2004 18.249 21.3911 18.328 21.5318 18.4687C21.6725 18.6093 21.7515 18.8001 21.7515 18.999C21.7515 19.1979 21.6725 19.3887 21.5318 19.5294C21.3911 19.67 21.2004 19.749 21.0015 19.749Z" />
<path d="M1.50251 13.75H0.751953V16.0017C0.751953 16.3998 0.910105 16.7816 1.19162 17.0631C1.47313 17.3446 1.85494 17.5028 2.25306 17.5028H4.50471V16.7522C4.50384 15.9562 4.18726 15.1931 3.62443 14.6303C3.06159 14.0675 2.29847 13.7509 1.50251 13.75Z" />
<path d="M22.502 12.25H23.252V9.25H22.502C21.3089 9.24864 20.1651 8.77409 19.3215 7.93047C18.4779 7.08686 18.0033 5.94306 18.002 4.75V4H6.00195V4.75C6.00059 5.94306 5.52604 7.08686 4.68243 7.93047C3.83881 8.77409 2.69501 9.24864 1.50195 9.25H0.751953V12.25C0.986328 12.25 1.23664 12.25 1.50195 12.25C2.69501 12.2514 3.83881 12.7259 4.68243 13.5695C5.52604 14.4131 6.00059 15.5569 6.00195 16.75V17.5H18.002V16.75C18.0033 15.5569 18.4779 14.4131 19.3215 13.5695C20.1651 12.7259 21.3089 12.2514 22.502 12.25ZM12.002 15.25C11.1119 15.25 10.2419 14.9861 9.50189 14.4916C8.76187 13.9971 8.18509 13.2943 7.8445 12.4721C7.5039 11.6498 7.41479 10.745 7.58842 9.87209C7.76205 8.99918 8.19064 8.19736 8.81997 7.56802C9.44931 6.93868 10.2511 6.5101 11.124 6.33647C11.997 6.16283 12.9018 6.25195 13.724 6.59254C14.5463 6.93314 15.2491 7.50991 15.7436 8.24993C16.238 8.98995 16.502 9.85998 16.502 10.75C16.5006 11.9431 16.026 13.0869 15.1824 13.9305C14.3388 14.7741 13.195 15.2486 12.002 15.25Z" />
<path d="M12.0014 13.7509C13.6585 13.7509 15.0018 12.4075 15.0018 10.7504C15.0018 9.09334 13.6585 7.75 12.0014 7.75C10.3443 7.75 9.00098 9.09334 9.00098 10.7504C9.00098 12.4075 10.3443 13.7509 12.0014 13.7509Z" />
<path d="M19.5005 16.7522V17.5028H21.7521C22.1503 17.5028 22.5321 17.3446 22.8136 17.0631C23.0951 16.7816 23.2532 16.3998 23.2532 16.0017V13.75H22.5027C21.7067 13.7509 20.9436 14.0675 20.3808 14.6303C19.8179 15.1931 19.5014 15.9562 19.5005 16.7522Z" />
<path d="M22.5027 7.75276H23.2532V5.5011C23.2532 5.10299 23.0951 4.72117 22.8136 4.43966C22.5321 4.15815 22.1503 4 21.7521 4H19.5005V4.75055C19.5014 5.54652 19.8179 6.30964 20.3808 6.87247C20.9436 7.43531 21.7067 7.75189 22.5027 7.75276Z" />
<path d="M4.50471 4.75055V4H2.25306C1.85494 4 1.47313 4.15815 1.19162 4.43966C0.910105 4.72117 0.751953 5.10299 0.751953 5.5011V7.75276H1.50251C2.29847 7.75189 3.06159 7.43531 3.62443 6.87247C4.18726 6.30964 4.50384 5.54652 4.50471 4.75055Z" />
</svg>
