<svg width="17" height="17" viewBox="0 0 17 17" xmlns="http://www.w3.org/2000/svg">
<path fill-rule="evenodd" clip-rule="evenodd" d="M3.49892 0.99976L3.50041 0.999756L10.2533 0.999758C10.8495 1.00146 11.4208 1.23904 11.8423 1.66061C12.2639 2.08218 12.5015 2.65347 12.5032 3.24966L12.5032 3.26152L12.4981 3.5002H12.7213C13.9819 3.5002 15.0039 4.52215 15.0039 5.78278V12.7218C15.0039 13.9824 13.9819 15.0044 12.7213 15.0044H5.78229C4.52166 15.0044 3.49971 13.9824 3.49971 12.7218V12.5039H3.25035L3.24893 12.5039C2.65274 12.5022 2.08145 12.2647 1.65988 11.8431C1.23831 11.4215 1.00072 10.8502 0.999025 10.254L0.999023 10.2526V3.49966C1.00098 2.83725 1.26499 2.20252 1.73339 1.73413C2.20179 1.26573 2.83651 1.00172 3.49892 0.99976ZM3.49971 11.502V5.78278C3.49971 4.52215 4.52166 3.5002 5.78229 3.5002H11.496L11.5013 3.24708C11.4989 2.91759 11.367 2.60216 11.1339 2.36906C10.8997 2.13483 10.5823 2.00276 10.2511 2.00165H3.50119C3.10372 2.00301 2.72291 2.1615 2.44184 2.44257C2.16077 2.72364 2.00227 3.10446 2.00091 3.50193V10.2518C2.00203 10.5831 2.1341 10.9004 2.36832 11.1346C2.60256 11.3689 2.91992 11.5009 3.25116 11.502H3.49971ZM11.9764 4.50209H5.78229C5.07499 4.50209 4.5016 5.07548 4.5016 5.78278V12.7218C4.5016 13.4291 5.07499 14.0025 5.78229 14.0025H12.7213C13.4286 14.0025 14.002 13.4291 14.002 12.7218V5.78278C14.002 5.07548 13.4286 4.50209 12.7213 4.50209H11.9972C11.9903 4.50223 11.9834 4.50223 11.9764 4.50209Z" />
</svg>
