<svg width="17" height="16" viewBox="0 0 17 16" xmlns="http://www.w3.org/2000/svg">
    <path fill-rule="evenodd" clip-rule="evenodd" d="M1.49927 8.00009C1.49927 4.41093 4.41105 1.49915 8.00021 1.49915C11.5894 1.49915 14.5012 4.41093 14.5012 8.00009C14.5012 11.5893 11.5894 14.501 8.00021 14.501C4.41105 14.501 1.49927 11.5893 1.49927 8.00009ZM8.00021 2.50104C4.96438 2.50104 2.50116 4.96426 2.50116 8.00009C2.50116 11.0359 4.96438 13.4991 8.00021 13.4991C11.036 13.4991 13.4993 11.0359 13.4993 8.00009C13.4993 4.96426 11.036 2.50104 8.00021 2.50104Z" />
    <path fill-rule="evenodd" clip-rule="evenodd" d="M7.99372 4.50027C8.08616 4.4994 8.17781 4.51736 8.26308 4.55309C8.3484 4.58883 8.42553 4.6416 8.48976 4.70816C8.55399 4.77472 8.60398 4.85368 8.63666 4.94021C8.66934 5.02674 8.68403 5.11903 8.67984 5.21144L8.50071 9.02372C8.48816 9.29094 8.26785 9.50114 8.00034 9.50115C7.73282 9.50116 7.5125 9.29098 7.49993 9.02376L7.32053 5.21228C7.31638 5.12097 7.33064 5.02892 7.36252 4.94326C7.39441 4.8576 7.44322 4.77925 7.50606 4.71287C7.5689 4.64649 7.64446 4.59346 7.72825 4.55693C7.81199 4.52042 7.90238 4.50116 7.99372 4.50027Z" />
    <path d="M8.00301 11.5033C7.8788 11.5033 7.75738 11.4665 7.65411 11.3975C7.55083 11.3285 7.47034 11.2304 7.42281 11.1157C7.37527 11.0009 7.36284 10.8746 7.38707 10.7528C7.4113 10.631 7.47111 10.5191 7.55894 10.4313C7.64677 10.3434 7.75867 10.2836 7.88049 10.2594C8.00232 10.2351 8.12859 10.2476 8.24334 10.2951C8.3581 10.3427 8.45618 10.4231 8.52519 10.5264C8.59419 10.6297 8.63103 10.7511 8.63103 10.8753C8.63103 11.0419 8.56486 11.2016 8.44709 11.3194C8.32931 11.4372 8.16957 11.5033 8.00301 11.5033Z" />
</svg>
