<svg width="18" height="17" viewBox="0 0 18 17" xmlns="http://www.w3.org/2000/svg">
<g clip-path="url(#clip0_355_2980)">
<path d="M14.5003 14.0044C14.4346 14.0045 14.3695 13.9916 14.3089 13.9664C14.2482 13.9413 14.1931 13.9043 14.1468 13.8578L3.14438 2.85539C3.05455 2.76083 3.00521 2.63493 3.00688 2.50452C3.00855 2.37411 3.06109 2.24951 3.15331 2.15729C3.24554 2.06507 3.37013 2.01253 3.50054 2.01086C3.63095 2.00919 3.75685 2.05853 3.85141 2.14836L14.8538 13.1508C14.9237 13.2207 14.9713 13.3098 14.9906 13.4068C15.0098 13.5037 14.9999 13.6043 14.9621 13.6956C14.9243 13.787 14.8602 13.8651 14.778 13.92C14.6958 13.975 14.5992 14.0043 14.5003 14.0044Z" />
<path d="M7.80434 13.3662L8.49199 9.59317C8.50868 9.50147 8.4994 9.40693 8.46521 9.32022C8.43103 9.23351 8.37329 9.15808 8.29851 9.10244C8.20848 9.037 8.09974 9.00236 7.98845 9.00367H5.04718L6.24619 7.52147C6.26559 7.49747 6.27542 7.46715 6.27381 7.43634C6.27219 7.40553 6.25924 7.3764 6.23744 7.35456L5.70389 6.82101C5.6915 6.80865 5.67666 6.79903 5.66033 6.79277C5.64399 6.78651 5.62653 6.78375 5.60906 6.78466C5.59159 6.78558 5.5745 6.79015 5.55891 6.79808C5.54332 6.806 5.52956 6.81712 5.51853 6.8307L3.61656 9.17996C3.56548 9.24151 3.52954 9.31417 3.51163 9.39212C3.49371 9.47007 3.49432 9.55113 3.51341 9.62881C3.54114 9.7362 3.60378 9.83133 3.69148 9.89923C3.77919 9.96713 3.88697 10.0039 3.99789 10.0039H7.39957L6.52156 14.8287V14.8321C6.49989 14.9579 6.52072 15.0872 6.58074 15.1998C6.64077 15.3124 6.73658 15.4018 6.85306 15.4538C6.96953 15.5059 7.10003 15.5177 7.22395 15.4874C7.34788 15.457 7.45817 15.3863 7.53741 15.2863L10.4321 11.7086C10.4516 11.6846 10.4615 11.6542 10.4599 11.6233C10.4582 11.5925 10.4452 11.5633 10.4234 11.5414L9.8898 11.0082C9.87741 10.9958 9.86255 10.9861 9.84619 10.9798C9.82982 10.9735 9.81232 10.9707 9.79481 10.9717C9.7773 10.9726 9.76018 10.9771 9.74455 10.9851C9.72893 10.9931 9.71516 11.0042 9.70413 11.0179L7.80434 13.3662Z" />
<path d="M10.1978 2.63566L9.50765 6.41273C9.49084 6.50442 9.49999 6.59898 9.53406 6.68575C9.56814 6.77252 9.62579 6.84803 9.70051 6.90378C9.79053 6.96949 9.89943 7.00426 10.0109 7.00286H12.9528L11.7535 8.48506C11.7341 8.50906 11.7242 8.53938 11.7258 8.57019C11.7275 8.601 11.7404 8.63013 11.7622 8.65197L12.2958 9.18552C12.3081 9.19793 12.323 9.20759 12.3394 9.21388C12.3557 9.22017 12.3732 9.22295 12.3908 9.22204C12.4083 9.22112 12.4254 9.21654 12.441 9.20858C12.4566 9.20062 12.4704 9.18946 12.4814 9.17583L14.3818 6.82657C14.4329 6.76502 14.4689 6.69236 14.4868 6.61441C14.5047 6.53646 14.5041 6.45539 14.485 6.37772C14.4573 6.27033 14.3946 6.1752 14.3069 6.1073C14.2192 6.0394 14.1114 6.00259 14.0005 6.00264H10.5995L11.4812 1.17753L11.4815 1.17552C11.483 1.16685 11.4844 1.15842 11.4853 1.14971C11.5012 1.0246 11.4756 0.897712 11.4126 0.788497C11.3495 0.679282 11.2523 0.593759 11.136 0.545028C11.0197 0.496298 10.8906 0.487047 10.7685 0.518693C10.6464 0.550339 10.5381 0.621138 10.46 0.720242L7.56629 4.2979C7.54681 4.32192 7.53692 4.3523 7.53854 4.38319C7.54015 4.41407 7.55316 4.44326 7.57504 4.46512L8.1086 4.99836C8.12099 5.01077 8.13584 5.02043 8.15221 5.02672C8.16857 5.03301 8.18608 5.03579 8.20359 5.03488C8.2211 5.03396 8.23822 5.02938 8.25384 5.02142C8.26946 5.01346 8.28323 5.0023 8.29426 4.98867L10.1978 2.63566Z"/>
</g>
<defs>
<clipPath id="clip0_355_2980">
<rect width="16.0035" height="16.0035" transform="translate(0.998047 0.00170898)"/>
</clipPath>
</defs>
</svg>
