<svg width="24" height="24" viewBox="0 0 24 24" xmlns="http://www.w3.org/2000/svg">
<path d="M12.0002 3C7.03015 3 3.00024 7.13437 3.00024 12.229C3.00024 16.3071 5.57971 19.7625 9.1556 20.9839C9.20576 20.9948 9.25695 21.0002 9.30828 21C9.64176 21 9.77033 20.7549 9.77033 20.542C9.77033 20.321 9.7623 19.7424 9.75828 18.971C9.46057 19.0408 9.15601 19.0772 8.85024 19.0795C7.11855 19.0795 6.7248 17.7335 6.7248 17.7335C6.31498 16.6687 5.72435 16.3835 5.72435 16.3835C4.94087 15.833 5.72033 15.817 5.7806 15.817H5.78462C6.68864 15.8973 7.16274 16.7732 7.16274 16.7732C7.61274 17.5607 8.21542 17.7817 8.75381 17.7817C9.10981 17.7746 9.4603 17.6924 9.78239 17.5406C9.86274 16.946 10.0958 16.5402 10.3529 16.3071C8.35605 16.0741 6.25471 15.2826 6.25471 11.7469C6.25471 10.7384 6.60426 9.91473 7.17881 9.27187C7.0864 9.03884 6.77703 8.09866 7.26721 6.82902C7.33296 6.81328 7.40054 6.80653 7.4681 6.80893C7.79355 6.80893 8.52882 6.93348 9.74221 7.77723C11.2166 7.36472 12.7759 7.36472 14.2502 7.77723C15.4636 6.93348 16.1989 6.80893 16.5244 6.80893C16.5919 6.80653 16.6595 6.81328 16.7252 6.82902C17.2154 8.09866 16.906 9.03884 16.8136 9.27187C17.3882 9.91875 17.7377 10.7424 17.7377 11.7469C17.7377 15.2906 15.6324 16.0701 13.6275 16.2991C13.9489 16.5844 14.2382 17.1469 14.2382 18.0067C14.2382 19.2402 14.2261 20.2366 14.2261 20.5379C14.2261 20.7549 14.3507 21 14.6842 21C14.7382 21.0002 14.792 20.9948 14.8449 20.9839C18.4248 19.7625 21.0002 16.3031 21.0002 12.229C21.0002 7.13437 16.9703 3 12.0002 3Z" />
</svg>
