<svg width="24" height="24" viewBox="0 0 24 24" xmlns="http://www.w3.org/2000/svg">
<path d="M12.001 3C7.03223 3 3.00098 7.03125 3.00098 12C3.00098 16.9688 7.03223 21 12.001 21C16.9697 21 21.001 16.9688 21.001 12C21.001 7.03125 16.9697 3 12.001 3ZM11.7197 17.25C11.5343 17.25 11.3531 17.195 11.1989 17.092C11.0447 16.989 10.9245 16.8426 10.8536 16.6713C10.7826 16.5 10.7641 16.3115 10.8002 16.1296C10.8364 15.9477 10.9257 15.7807 11.0568 15.6496C11.1879 15.5185 11.355 15.4292 11.5368 15.393C11.7187 15.3568 11.9072 15.3754 12.0785 15.4464C12.2498 15.5173 12.3962 15.6375 12.4992 15.7917C12.6022 15.9458 12.6572 16.1271 12.6572 16.3125C12.6572 16.5611 12.5585 16.7996 12.3826 16.9754C12.2068 17.1512 11.9684 17.25 11.7197 17.25ZM13.2872 12.4688C12.5274 12.9788 12.4229 13.4461 12.4229 13.875C12.4229 14.049 12.3537 14.216 12.2306 14.339C12.1076 14.4621 11.9407 14.5312 11.7666 14.5312C11.5926 14.5312 11.4256 14.4621 11.3026 14.339C11.1795 14.216 11.1104 14.049 11.1104 13.875C11.1104 12.848 11.5829 12.0314 12.555 11.3784C13.4588 10.7719 13.9697 10.3875 13.9697 9.54234C13.9697 8.96766 13.6416 8.53125 12.9624 8.20828C12.8025 8.13234 12.4468 8.05828 12.0089 8.06344C11.4596 8.07047 11.033 8.20172 10.7044 8.46609C10.0847 8.96484 10.0322 9.50766 10.0322 9.51562C10.0281 9.60181 10.007 9.68632 9.97016 9.76435C9.93335 9.84238 9.88152 9.9124 9.81764 9.9704C9.75377 10.0284 9.67909 10.0732 9.59788 10.1024C9.51667 10.1315 9.43052 10.1444 9.34434 10.1402C9.25816 10.1361 9.17364 10.115 9.09561 10.0782C9.01758 10.0414 8.94757 9.98953 8.88956 9.92565C8.83156 9.86177 8.78671 9.7871 8.75757 9.70589C8.72843 9.62468 8.71557 9.53852 8.71973 9.45234C8.72488 9.33844 8.8041 8.31234 9.88082 7.44609C10.4391 6.99703 11.1493 6.76359 11.9902 6.75328C12.5855 6.74625 13.1447 6.84703 13.5239 7.02609C14.6588 7.56281 15.2822 8.45766 15.2822 9.54234C15.2822 11.1281 14.2224 11.8402 13.2872 12.4688Z" />
</svg>
