<svg width="24" height="24" viewBox="0 0 24 24" xmlns="http://www.w3.org/2000/svg">
<g clip-path="url(#clip0_1313_6640)">
<path d="M17.351 3.88752C17.5828 4.32509 18.0343 4.5756 18.4994 4.5756C18.7037 4.5756 18.9103 4.52735 19.1024 4.4257L22.7155 2.51111C23.3451 2.17737 23.5873 1.38925 23.2536 0.759596L23.2157 0.688162C22.9838 0.250505 22.5322 0 22.067 0C21.8629 0 21.6563 0.0482424 21.4643 0.149899L17.8512 2.06465C17.2215 2.3983 16.9794 3.18642 17.313 3.816L17.351 3.88752Z" />
<path d="M2.81852 11.5428C2.8287 11.5621 2.84001 11.5816 2.85205 11.6012C3.51977 12.8092 4.7832 13.5578 6.16833 13.5578C6.78175 13.5578 7.39403 13.4051 7.93916 13.1163C10.5965 11.7081 13.4614 7.24407 14.0242 6.33797L16.7026 4.91874C16.5663 4.7694 16.4468 4.60262 16.3494 4.41894L16.3113 4.34694C16.2132 4.16173 16.1414 3.9694 16.0948 3.77441L13.4171 5.1934C13.1792 5.18403 12.7223 5.17013 12.1229 5.17013C9.67379 5.17013 6.3445 5.38734 4.39177 6.42217C2.54716 7.39979 1.84114 9.69522 2.81738 11.5403C2.81779 11.5411 2.81811 11.542 2.81852 11.5428ZM7.33262 11.9715C6.96849 12.1645 6.57674 12.2623 6.16833 12.2623C5.78369 12.2623 5.41367 12.1735 5.0809 12.0127C5.66062 11.8667 6.30708 11.612 6.95896 11.2665C8.07969 10.6726 9.40017 9.78847 10.5919 8.9328C9.59532 10.1654 8.42142 11.3945 7.33262 11.9715ZM6.35233 10.1218C5.35088 10.6524 4.54256 10.8494 4.10643 10.8584C4.34514 10.5275 4.96049 9.95631 5.97876 9.41668C7.12106 8.81134 8.68849 8.19041 10.1167 7.67542C8.88906 8.56787 7.49504 9.51615 6.35233 10.1218ZM4.99848 7.56706C6.08866 6.98936 7.7689 6.70823 9.34458 6.57571C7.96688 7.0814 6.49326 7.67785 5.37205 8.27195C4.78086 8.58524 4.18256 8.97635 3.70159 9.40157C3.81536 8.64593 4.2729 7.95146 4.99848 7.56706Z" />
<path d="M22.6883 14.3643H1.31149C0.864295 14.3643 0.501709 14.7268 0.501709 15.174C0.501709 17.3747 1.75658 19.6137 3.94462 21.3168C6.16773 23.0471 9.02834 24 11.9999 24C14.9714 24 17.8321 23.0471 20.0551 21.3167C22.2431 19.6137 23.4981 17.3747 23.4981 15.174C23.498 14.7268 23.1355 14.3643 22.6883 14.3643Z" />
</g>
<defs>
<clipPath id="clip0_1313_6640">
<rect width="24" height="24" fill="white"/>
</clipPath>
</defs>
</svg>
