<svg width="16" height="16" viewBox="0 0 16 16" fill="none" xmlns="http://www.w3.org/2000/svg">
<circle cx="8" cy="8" r="8" fill="#8247E5"/>
<g clip-path="url(#clip0_488_57120)">
<path d="M10.4932 6.36134C10.3181 6.26126 10.0929 6.26126 9.89276 6.36134L8.49177 7.18692L7.54109 7.7123L6.16512 8.53788C5.98999 8.63795 5.76483 8.63795 5.56469 8.53788L4.48893 7.88742C4.3138 7.78735 4.18871 7.58721 4.18871 7.36205V6.11116C4.18871 5.91102 4.28878 5.71087 4.48893 5.58579L5.56469 4.96034C5.73981 4.86027 5.96497 4.86027 6.16512 4.96034L7.24088 5.6108C7.416 5.71087 7.54109 5.91102 7.54109 6.13618V6.96176L8.49177 6.41137V5.56077C8.49177 5.36063 8.3917 5.16048 8.19155 5.03539L6.19013 3.85956C6.01501 3.75949 5.78985 3.75949 5.58971 3.85956L3.53825 5.06041C3.33811 5.16048 3.23804 5.36063 3.23804 5.56077V7.91244C3.23804 8.11258 3.33811 8.31272 3.53825 8.43781L5.56469 9.61365C5.73981 9.71372 5.96497 9.71372 6.16512 9.61365L7.54109 8.81308L8.49177 8.26269L9.86774 7.46212C10.0429 7.36205 10.268 7.36205 10.4682 7.46212L11.5439 8.08756C11.7191 8.18763 11.8441 8.38778 11.8441 8.61294V9.86382C11.8441 10.064 11.7441 10.2641 11.5439 10.3892L10.4932 11.0146C10.3181 11.1147 10.0929 11.1147 9.89276 11.0146L8.817 10.3892C8.64187 10.2891 8.51679 10.089 8.51679 9.86382V9.06326L7.56611 9.61365V10.4392C7.56611 10.6394 7.66618 10.8395 7.86632 10.9646L9.89276 12.1404C10.0679 12.2405 10.293 12.2405 10.4932 12.1404L12.5196 10.9646C12.6948 10.8645 12.8198 10.6644 12.8198 10.4392V8.06254C12.8198 7.8624 12.7198 7.66226 12.5196 7.53717L10.4932 6.36134Z" fill="white"/>
</g>
<defs>
<clipPath id="clip0_488_57120">
<rect width="9.60682" height="8.38095" fill="white" transform="translate(3.23804 3.80952)"/>
</clipPath>
</defs>
</svg>
