<svg width="24" height="24" viewBox="0 0 24 24" xmlns="http://www.w3.org/2000/svg">
<path d="M17.8569 4H5.28547C4.67946 4.00066 4.09847 4.24169 3.66996 4.6702C3.24145 5.09871 3.00042 5.67971 2.99976 6.28571V17.7143C3.00042 18.3203 3.24145 18.9013 3.66996 19.3298C4.09847 19.7583 4.67946 19.9993 5.28547 20H17.8569C18.4629 19.9993 19.0439 19.7583 19.4724 19.3298C19.9009 18.9013 20.142 18.3203 20.1426 17.7143V6.28571C20.142 5.67971 19.9009 5.09871 19.4724 4.6702C19.0439 4.24169 18.4629 4.00066 17.8569 4ZM5.8569 12C5.73851 12 5.62304 11.9632 5.52645 11.8948C5.42987 11.8263 5.35693 11.7295 5.31772 11.6178C5.27851 11.5061 5.27496 11.385 5.30757 11.2712C5.34018 11.1574 5.40734 11.0565 5.49976 10.9825L7.7994 9.14286L5.49976 7.30321C5.44113 7.25631 5.39232 7.19833 5.3561 7.13256C5.31989 7.06679 5.29698 6.99454 5.28869 6.91992C5.2804 6.8453 5.28688 6.76978 5.30778 6.69767C5.32868 6.62556 5.36357 6.55827 5.41047 6.49964C5.45737 6.44102 5.51536 6.3922 5.58113 6.35599C5.64689 6.31977 5.71915 6.29687 5.79376 6.28857C5.86838 6.28028 5.9439 6.28677 6.01602 6.30767C6.08813 6.32856 6.15542 6.36346 6.21404 6.41036L9.07118 8.69607C9.13818 8.7496 9.19227 8.81753 9.22944 8.89481C9.26662 8.97209 9.28592 9.05674 9.28592 9.1425C9.28592 9.22826 9.26662 9.31291 9.22944 9.39019C9.19227 9.46747 9.13818 9.5354 9.07118 9.58893L6.21404 11.8746C6.11269 11.9558 5.98673 12 5.8569 12ZM11.5712 12H9.28547C9.13392 12 8.98857 11.9398 8.88141 11.8326C8.77425 11.7255 8.71404 11.5801 8.71404 11.4286C8.71404 11.277 8.77425 11.1317 8.88141 11.0245C8.98857 10.9173 9.13392 10.8571 9.28547 10.8571H11.5712C11.7227 10.8571 11.8681 10.9173 11.9752 11.0245C12.0824 11.1317 12.1426 11.277 12.1426 11.4286C12.1426 11.5801 12.0824 11.7255 11.9752 11.8326C11.8681 11.9398 11.7227 12 11.5712 12Z" />
</svg>
