<svg width="24" height="24" viewBox="0 0 24 24" xmlns="http://www.w3.org/2000/svg">
<path d="M9.156 11.786C11.028 11.786 12.549 10.265 12.549 8.393C12.549 6.521 11.028 5 9.156 5C7.284 5 5.76301 6.521 5.76301 8.393C5.76301 10.265 7.284 11.786 9.156 11.786Z" />
<path d="M15.744 17.087V18.635C15.744 19.004 15.447 19.31 15.069 19.31H3.675C3.306 19.31 3 19.004 3 18.635V17.087C3 14.918 4.764 13.154 6.933 13.154H11.811C12.252 13.154 12.675 13.226 13.071 13.37C13.071 13.37 13.071 13.361 13.08 13.37C14.628 13.892 15.744 15.359 15.744 17.087Z" />
<path d="M15.744 17.087V18.635C15.744 19.004 15.447 19.31 15.069 19.31H3.675C3.306 19.31 3 19.004 3 18.635V17.087C3 14.918 4.764 13.154 6.933 13.154H11.811C12.252 13.154 12.675 13.226 13.071 13.37C13.071 13.37 13.071 13.361 13.08 13.37C14.628 13.892 15.744 15.359 15.744 17.087Z" />
<path d="M21 16.313V17.582C21 17.879 20.757 18.122 20.46 18.122H17.094V17.087C17.094 16.178 16.86 15.314 16.455 14.567C16.284 14.261 16.095 13.973 15.879 13.712C15.726 13.541 15.573 13.37 15.411 13.226H17.913C18.012 13.226 18.102 13.226 18.192 13.244C18.309 13.253 18.426 13.271 18.543 13.298C19.227 13.442 19.821 13.82 20.262 14.324C20.334 14.405 20.406 14.495 20.469 14.594C20.478 14.594 20.478 14.594 20.469 14.603C20.64 14.855 20.775 15.125 20.865 15.422C20.892 15.521 20.919 15.62 20.937 15.719C20.982 15.908 21 16.106 21 16.313Z" />
<path d="M15.942 11.66C17.4282 11.66 18.633 10.4552 18.633 8.969C18.633 7.4828 17.4282 6.278 15.942 6.278C14.4558 6.278 13.251 7.4828 13.251 8.969C13.251 10.4552 14.4558 11.66 15.942 11.66Z" />
</svg>
