<svg width="72" height="72" viewBox="0 0 72 72" fill="none" xmlns="http://www.w3.org/2000/svg">
    <path d="M2.00477 40.6016C-7.90553 24.1827 23.8703 -10.3874 51.4795 12.3594C79.5516 35.4876 11.6039 55.5451 2.00477 40.6016Z" fill="#F95399"/>
    <path d="M71.6304 61.4913C74.8579 52.6057 56.1939 38.9162 45.01 52.5497C33.6387 66.4118 68.4127 69.6337 71.6304 61.4913Z" fill="#F95399"/>
    <path d="M52.5378 20.6515L16.0185 27.6088C12.9931 28.1851 11.0078 31.1049 11.5842 34.1302L15.7585 56.0418C16.3349 59.0671 19.2546 61.0525 22.28 60.4761L58.7993 53.5189C61.8246 52.9425 63.8099 50.0228 63.2336 46.9974L59.0592 25.0858C58.4829 22.0605 55.5631 20.0752 52.5378 20.6515Z" stroke="#022051" stroke-width="2" stroke-linejoin="round"/>
    <path d="M52.0083 20.753L51.3561 17.3293C51.1959 16.4896 50.8523 15.6957 50.3499 15.0041C49.8475 14.3125 49.1986 13.7404 48.4496 13.3284C47.7006 12.9165 46.8699 12.6749 46.0168 12.621C45.1637 12.5671 44.3092 12.7021 43.5143 13.0164L14.4362 23.872C13.1784 24.3694 12.1336 25.2901 11.482 26.4754C10.8304 27.6607 10.6128 29.0362 10.8668 30.3647L11.9322 35.9567" stroke="#022051" stroke-width="2" stroke-linejoin="round"/>
    <path d="M50.8871 41.7824C50.1643 41.9201 49.4169 41.8404 48.7394 41.5533C48.0619 41.2662 47.4847 40.7847 47.0809 40.1696C46.6771 39.5545 46.4647 38.8335 46.4707 38.0977C46.4766 37.3619 46.7006 36.6444 47.1144 36.0359C47.5281 35.4274 48.113 34.9553 48.795 34.6793C49.4771 34.4032 50.2257 34.3356 50.9462 34.485C51.6667 34.6343 52.3267 34.994 52.8428 35.5185C53.3588 36.043 53.7078 36.7088 53.8455 37.4316C54.0301 38.4008 53.8222 39.4038 53.2674 40.2197C52.7126 41.0356 51.8564 41.5978 50.8871 41.7824Z" fill="#022051"/>
</svg>
