<svg width="24" height="24" viewBox="0 0 24 24" xmlns="http://www.w3.org/2000/svg">
<path d="M6.09442 8.26598C9.35599 5.07263 14.644 5.07263 17.9056 8.26598L18.2981 8.65031C18.4612 8.80998 18.4612 9.06885 18.2981 9.22852L16.9554 10.5432C16.8738 10.623 16.7416 10.623 16.6601 10.5432L16.1199 10.0143C13.8445 7.78658 10.1555 7.78658 7.88012 10.0143L7.30164 10.5807C7.2201 10.6606 7.0879 10.6606 7.00636 10.5807L5.66357 9.26602C5.50049 9.10635 5.50049 8.84748 5.66357 8.68782L6.09442 8.26598ZM20.6826 10.9849L21.8777 12.155C22.0408 12.3147 22.0408 12.5735 21.8777 12.7332L16.489 18.0093C16.3259 18.169 16.0615 18.169 15.8984 18.0093C15.8984 18.0093 15.8984 18.0093 15.8984 18.0093L12.0739 14.2647C12.0331 14.2248 11.967 14.2248 11.9262 14.2647C11.9262 14.2647 11.9262 14.2647 11.9262 14.2647L8.10172 18.0093C7.93865 18.169 7.67424 18.169 7.51116 18.0093C7.51116 18.0093 7.51117 18.0093 7.51116 18.0093L2.12231 12.7331C1.95923 12.5735 1.95923 12.3146 2.12231 12.1549L3.31739 10.9849C3.48047 10.8252 3.74487 10.8252 3.90795 10.9849L7.73258 14.7295C7.77335 14.7694 7.83945 14.7694 7.88022 14.7295C7.88022 14.7295 7.88022 14.7295 7.88022 14.7295L11.7047 10.9849C11.8677 10.8252 12.1321 10.8252 12.2952 10.9848C12.2952 10.9848 12.2952 10.9848 12.2952 10.9848L16.1198 14.7295C16.1606 14.7694 16.2267 14.7694 16.2675 14.7295L20.0921 10.9849C20.2551 10.8253 20.5195 10.8253 20.6826 10.9849Z" />
</svg>
