<svg width="16" height="16" viewBox="0 0 16 16" fill="none" xmlns="http://www.w3.org/2000/svg">
<path d="M10.0242 7.33111L11.3434 5.33726L14.8992 10.2702L14.9008 11.2169L14.8892 4.70244C14.8808 4.54315 14.7859 4.39744 14.6345 4.31149L8.23264 1.03166C8.08298 0.966094 7.89298 0.966881 7.74354 1.03373C7.72331 1.04279 7.70441 1.05253 7.68628 1.06327L7.66395 1.07577L1.44993 4.28314L1.42583 4.29298C1.39477 4.30558 1.36349 4.32183 1.33398 4.34053C1.21615 4.41575 1.1379 4.5271 1.11258 4.65184C1.10883 4.67074 1.10595 4.69004 1.10474 4.70953L1.11446 10.0182L4.42657 5.44575C4.8435 4.83949 5.75207 4.64406 6.59555 4.65479L7.58536 4.67803L1.7529 13.0093L2.44041 13.3619L8.34273 4.68649L10.9516 4.67803L5.06456 13.5724L7.51783 14.8293L7.81096 14.9793C7.93498 15.0242 8.0811 15.0265 8.20611 14.9862L14.6979 11.6353L13.4567 12.276L10.0242 7.33111ZM10.5274 13.7881L8.0496 10.324L9.56224 8.0378L12.8164 12.6065L10.5274 13.7881Z" fill="#2D374B"/>
<path d="M8.04907 10.3241L10.527 13.7881L12.8159 12.6066L9.56171 8.03789L8.04907 10.3241Z" fill="#28A0F0"/>
<path d="M14.9004 11.217L14.8987 10.2703L11.3429 5.33734L10.0237 7.33119L13.4564 12.276L14.6975 11.6354C14.8192 11.5474 14.893 11.4181 14.9007 11.2787L14.9004 11.217Z" fill="#28A0F0"/>
<path d="M0 12.1098L1.75271 13.0093L7.58517 4.67805L6.59536 4.65482C5.75199 4.64418 4.84342 4.83951 4.42638 5.44578L1.11428 10.0182L0 11.5431V12.1098Z" fill="white"/>
<path d="M10.9514 4.67804L8.3425 4.6865L2.44019 13.3619L4.50327 14.4198L5.06422 13.5724L10.9514 4.67804Z" fill="white"/>
<path d="M16 4.66603C15.9782 4.18007 15.6828 3.73526 15.2201 3.47624L8.73438 0.154077C8.27666 -0.051195 7.70488 -0.0514902 7.24628 0.153979C7.19212 0.178296 0.939083 3.4085 0.939083 3.4085C0.852536 3.44542 0.769195 3.48943 0.690827 3.53944C0.277768 3.80319 0.0259751 4.21295 0 4.66307V11.5432L1.11428 10.0183L1.10455 4.70954C1.10588 4.69015 1.10864 4.67095 1.1124 4.65214C1.1376 4.52721 1.21597 4.41586 1.33379 4.34054C1.36331 4.32184 7.72301 1.0428 7.74323 1.03374C7.89278 0.966896 8.08268 0.966108 8.23234 1.03168L14.6342 4.3115C14.7856 4.39745 14.8805 4.54316 14.8889 4.70245V11.2785C14.8812 11.418 14.8193 11.5472 14.6976 11.6352L13.4564 12.2759L12.816 12.6065L10.5271 13.788L8.20581 14.9861C8.0808 15.0264 7.93457 15.0241 7.81066 14.9793L5.06426 13.5723L4.5032 14.4197L6.97139 15.6854C7.05296 15.7268 7.12569 15.7634 7.18538 15.7933C7.27778 15.8395 7.34079 15.8703 7.363 15.88C7.53842 15.9559 7.79076 16 8.01824 16C8.2267 16 8.43008 15.9659 8.62252 15.8988L15.3649 12.421C15.7519 12.1539 15.9796 11.7511 16 11.3149V4.66603Z" fill="#96BEDC"/>
</svg>
