<svg width="40" height="40" viewBox="0 0 40 40" fill="none" xmlns="http://www.w3.org/2000/svg">
    <path d="M29.3094 15.4659C26.3685 12.0758 21.2363 11.7117 17.8462 14.6526L9.23933 22.1192C9.56911 22.9795 10.0519 23.7979 10.6906 24.5341C13.6315 27.9241 18.7638 28.2883 22.1538 25.3473L30.7607 17.8808C30.4309 17.0205 29.9481 16.2021 29.3094 15.4659Z" fill="#1E3675"/>
    <path fill-rule="evenodd" clip-rule="evenodd" d="M28.4962 26.9291C31.15 24.6269 31.9495 20.9818 30.7607 17.8808L22.1538 25.3473C18.7638 28.2883 13.6315 27.9241 10.6906 24.5341C10.0519 23.7979 9.56911 22.9795 9.23933 22.1192L7.61581 23.5276C4.22576 26.4685 3.86165 31.6008 6.80256 34.9908C9.74346 38.3809 14.8757 38.745 18.2658 35.8041L28.4962 26.9291Z" fill="#E0005E"/>
    <path d="M17.8462 14.6526C21.2363 11.7117 26.3685 12.0758 29.3094 15.4659C29.9481 16.2021 30.4309 17.0205 30.7607 17.8808L32.3842 16.4724C35.7743 13.5315 36.1384 8.39921 33.1975 5.00915C30.2566 1.6191 25.1243 1.25499 21.7343 4.1959L11.5039 13.0709C8.85004 15.3731 8.05056 19.0182 9.23933 22.1192L17.8462 14.6526Z" fill="#0ABBE2"/>
</svg>
